<svg width="167" height="56" viewBox="0 0 167 56" fill="none" xmlns="http://www.w3.org/2000/svg">
<g clip-path="url(#clip0)">
<rect width="42.7016" height="13.313" rx="6.65652" transform="matrix(0.896419 -0.443207 0.372137 0.928178 0 43.6398)" fill="#44BD32"/>
<path d="M37.2636 39.999C40.3313 38.4793 41.7109 34.4805 40.3451 31.0673C38.9793 27.6542 35.3853 26.1192 32.3176 27.6388L16.2136 35.6212C25.4013 37.4252 25.7684 43.4314 24.8035 46.1715L37.2636 39.999Z" fill="url(#paint0_linear)"/>
<path d="M32.7899 27.3991L20.3342 33.5694C23.6245 36.0177 30.4676 35.9225 25.2696 45.9349L37.7359 39.7593C40.895 38.1111 42.1831 34.2409 40.8173 30.8277C39.2761 27.3991 35.8575 25.8795 32.7899 27.3991Z" fill="#0097E6"/>
<path d="M40.8172 36.3799C42.183 32.9668 40.8034 28.9679 37.7358 27.4483L10.5807 13.9962C4.85964 11.1621 -0.332378 22.4581 4.98977 25.9848C5.19548 26.1211 5.4106 26.2454 5.63474 26.3564L32.7898 39.8085C35.8574 41.3281 39.3518 39.2778 40.8172 36.3799Z" fill="#0097E6"/>
<path d="M5.63481 26.3564C2.56718 24.8368 1.18757 20.8379 2.55337 17.4248C4.24384 14.3889 7.51317 12.4766 10.5808 13.9962L26.6848 21.9786C17.4971 23.7826 17.13 29.7889 18.095 32.5289L5.63481 26.3564Z" fill="url(#paint1_linear)"/>
<path d="M10.5812 13.9895L23.0369 20.1598C19.7466 22.608 12.9034 22.5128 18.1015 32.5252L5.63522 26.3497C2.56759 24.83 1.18798 20.8312 2.55378 17.418C4.24375 14.3889 7.51358 12.4698 10.5812 13.9895Z" fill="#F59300"/>
<path d="M2.55389 22.9703C1.18809 19.5571 2.5677 15.5582 5.63533 14.0386L32.7904 0.586547C35.858 -0.933095 39.452 0.601915 40.8178 4.01509C42.1836 7.42826 40.804 11.4271 37.7363 12.9467L10.5813 26.3988C7.51369 27.9184 3.91968 26.3834 2.55389 22.9703Z" fill="#F59300"/>
</g>
<path d="M70.7185 30.5448C70.5235 30.7008 70.27 30.8275 69.958 30.925C69.646 31.0225 69.2852 31.0713 68.8757 31.0713C68.3687 31.0713 67.9397 31.0128 67.5887 30.8958C67.2572 30.7593 67.0232 30.5253 66.8867 30.1938C66.0872 28.2048 65.4145 26.5083 64.8685 25.1043C64.3225 23.7003 63.8838 22.5011 63.5523 21.5066H63.406C63.3475 22.8131 63.289 24.0123 63.2305 25.1043C63.1915 26.1963 63.1525 27.2688 63.1135 28.3218C63.0745 29.3553 63.0258 30.4083 62.9673 31.4808C62.9283 32.5532 62.8698 33.7135 62.7918 34.9615C62.5968 35.02 62.353 35.0785 62.0605 35.137C61.768 35.1955 61.456 35.2247 61.1245 35.2247C59.818 35.2247 59.1648 34.7372 59.1648 33.7622C59.1648 33.4502 59.1745 32.9725 59.194 32.329C59.233 31.666 59.272 30.9055 59.311 30.0475C59.3695 29.17 59.428 28.2145 59.4865 27.181C59.5645 26.1475 59.6328 25.1043 59.6913 24.0513C59.7693 22.9983 59.8473 21.9648 59.9253 20.9508C60.0033 19.9173 60.0715 18.9619 60.13 18.0844C60.286 17.8894 60.5688 17.6944 60.9783 17.4994C61.4073 17.2849 61.9533 17.1776 62.6163 17.1776C63.3573 17.1776 63.952 17.3044 64.4005 17.5579C64.8685 17.7919 65.2195 18.1916 65.4535 18.7571C65.707 19.3616 65.9702 20.0246 66.2432 20.7461C66.5357 21.4676 66.8282 22.2086 67.1207 22.9691C67.4132 23.7296 67.696 24.4803 67.969 25.2213C68.2615 25.9428 68.5345 26.6253 68.788 27.2688H68.905C69.568 25.4358 70.2212 23.6613 70.8647 21.9453C71.5277 20.2293 72.1029 18.7766 72.5904 17.5871C72.8244 17.4701 73.1267 17.3726 73.4972 17.2946C73.8677 17.2166 74.2479 17.1776 74.6379 17.1776C75.3594 17.1776 75.9347 17.2849 76.3637 17.4994C76.7927 17.7139 77.0559 18.0356 77.1534 18.4646C77.2314 18.8351 77.3192 19.4299 77.4167 20.2488C77.5142 21.0483 77.6117 21.9648 77.7092 22.9983C77.8067 24.0318 77.9042 25.1336 78.0017 26.3035C78.0992 27.4735 78.1869 28.6045 78.2649 29.6965C78.3429 30.769 78.4111 31.7538 78.4696 32.6507C78.5281 33.5477 78.5671 34.2497 78.5866 34.7567C78.3331 34.9127 78.0602 35.0297 77.7677 35.1077C77.4947 35.1857 77.1534 35.2247 76.7439 35.2247C76.2369 35.2247 75.7884 35.1272 75.3984 34.9322C75.0279 34.7177 74.8232 34.3277 74.7842 33.7622C74.7062 32.5338 74.6379 31.3345 74.5794 30.1645C74.5209 28.975 74.4722 27.8538 74.4332 26.8008C74.3942 25.7478 74.3552 24.7826 74.3162 23.9051C74.2772 23.0081 74.2479 22.2378 74.2284 21.5943H74.0822C73.7702 22.5108 73.3412 23.6808 72.7952 25.1043C72.2492 26.5083 71.5569 28.3218 70.7185 30.5448Z" fill="black"/>
<path d="M87.6559 32.6507C88.2214 32.6507 88.7381 32.602 89.2061 32.5045C89.6741 32.3875 90.0154 32.251 90.2299 32.095V28.8483L87.3927 29.1115C86.6127 29.1895 86.0179 29.365 85.6084 29.638C85.1989 29.8915 84.9942 30.301 84.9942 30.8665C84.9942 31.432 85.1989 31.8708 85.6084 32.1828C86.0374 32.4947 86.7199 32.6507 87.6559 32.6507ZM87.5389 20.7461C89.4499 20.7461 90.9709 21.1556 92.1019 21.9746C93.2524 22.7936 93.8276 24.0611 93.8276 25.7771V32.5337C93.8276 33.0017 93.7106 33.3722 93.4766 33.6452C93.2426 33.9182 92.9501 34.162 92.5991 34.3765C92.0531 34.708 91.3609 34.9712 90.5224 35.1662C89.6839 35.3612 88.7284 35.4587 87.6559 35.4587C85.7059 35.4587 84.1654 35.0882 83.0344 34.3472C81.9229 33.5867 81.3672 32.4557 81.3672 30.9543C81.3672 29.6478 81.7767 28.6533 82.5957 27.9708C83.4342 27.2688 84.6432 26.8398 86.2227 26.6838L90.2299 26.2743V25.7478C90.2299 25.0068 89.9569 24.4608 89.4109 24.1098C88.8844 23.7588 88.1336 23.5833 87.1587 23.5833C86.3982 23.5833 85.6572 23.6808 84.9357 23.8758C84.2142 24.0513 83.5707 24.2756 83.0052 24.5486C82.7907 24.3926 82.6054 24.1878 82.4494 23.9343C82.3129 23.6613 82.2447 23.3688 82.2447 23.0568C82.2447 22.6668 82.3324 22.3548 82.5079 22.1208C82.7029 21.8673 83.0052 21.6431 83.4147 21.4481C83.9802 21.2141 84.6237 21.0386 85.3452 20.9216C86.0667 20.8046 86.7979 20.7461 87.5389 20.7461Z" fill="black"/>
<path d="M106.652 26.0988C106.652 25.2603 106.409 24.6461 105.921 24.2561C105.453 23.8661 104.81 23.6711 103.991 23.6711C103.425 23.6711 102.899 23.7393 102.411 23.8758C101.943 24.0123 101.534 24.1878 101.183 24.4023V34.9907C101.007 35.0297 100.773 35.0785 100.481 35.137C100.188 35.1955 99.8568 35.2247 99.4863 35.2247C98.8038 35.2247 98.2968 35.098 97.9653 34.8445C97.6338 34.591 97.4681 34.1425 97.4681 33.499V24.1098C97.4681 23.6418 97.5656 23.2616 97.7606 22.9691C97.9556 22.6766 98.2578 22.3938 98.6673 22.1208C99.2328 21.7308 99.9835 21.4091 100.92 21.1556C101.856 20.8826 102.889 20.7461 104.02 20.7461C106.028 20.7461 107.579 21.1946 108.671 22.0916C109.782 22.9691 110.338 24.2658 110.338 25.9818V34.9907C110.182 35.0297 109.948 35.0785 109.636 35.137C109.343 35.1955 109.022 35.2247 108.671 35.2247C107.969 35.2247 107.452 35.098 107.12 34.8445C106.808 34.591 106.652 34.1425 106.652 33.499V26.0988Z" fill="black"/>
<path d="M126.934 32.2998C126.934 32.7482 126.856 33.1285 126.7 33.4405C126.544 33.733 126.261 33.9962 125.852 34.2302C125.286 34.5812 124.565 34.8737 123.687 35.1077C122.829 35.3417 121.844 35.4587 120.733 35.4587C119.719 35.4587 118.802 35.3417 117.983 35.1077C117.164 34.8932 116.462 34.552 115.877 34.084C115.292 33.616 114.844 33.0212 114.532 32.2998C114.22 31.5783 114.064 30.7203 114.064 29.7258V21.2141C114.22 21.1556 114.444 21.1068 114.737 21.0678C115.049 21.0093 115.39 20.9801 115.76 20.9801C116.443 20.9801 116.95 21.1068 117.281 21.3603C117.613 21.5943 117.779 22.0428 117.779 22.7058V29.6673C117.779 30.6813 118.032 31.4125 118.539 31.861C119.066 32.29 119.807 32.5045 120.762 32.5045C121.367 32.5045 121.874 32.446 122.283 32.329C122.712 32.212 123.034 32.0853 123.248 31.9488V21.2141C123.404 21.1556 123.629 21.1068 123.921 21.0678C124.233 21.0093 124.565 20.9801 124.916 20.9801C125.618 20.9801 126.125 21.1068 126.437 21.3603C126.768 21.5943 126.934 22.0428 126.934 22.7058V32.2998Z" fill="black"/>
<path d="M136.101 32.6507C136.666 32.6507 137.183 32.602 137.651 32.5045C138.119 32.3875 138.46 32.251 138.675 32.095V28.8483L135.838 29.1115C135.058 29.1895 134.463 29.365 134.053 29.638C133.644 29.8915 133.439 30.301 133.439 30.8665C133.439 31.432 133.644 31.8708 134.053 32.1828C134.482 32.4947 135.165 32.6507 136.101 32.6507ZM135.984 20.7461C137.895 20.7461 139.416 21.1556 140.547 21.9746C141.697 22.7936 142.273 24.0611 142.273 25.7771V32.5337C142.273 33.0017 142.156 33.3722 141.922 33.6452C141.688 33.9182 141.395 34.162 141.044 34.3765C140.498 34.708 139.806 34.9712 138.967 35.1662C138.129 35.3612 137.173 35.4587 136.101 35.4587C134.151 35.4587 132.61 35.0882 131.479 34.3472C130.368 33.5867 129.812 32.4557 129.812 30.9543C129.812 29.6478 130.222 28.6533 131.041 27.9708C131.879 27.2688 133.088 26.8398 134.668 26.6838L138.675 26.2743V25.7478C138.675 25.0068 138.402 24.4608 137.856 24.1098C137.329 23.7588 136.579 23.5833 135.604 23.5833C134.843 23.5833 134.102 23.6808 133.381 23.8758C132.659 24.0513 132.016 24.2756 131.45 24.5486C131.236 24.3926 131.05 24.1878 130.894 23.9343C130.758 23.6613 130.69 23.3688 130.69 23.0568C130.69 22.6668 130.777 22.3548 130.953 22.1208C131.148 21.8673 131.45 21.6431 131.86 21.4481C132.425 21.2141 133.069 21.0386 133.79 20.9216C134.512 20.8046 135.243 20.7461 135.984 20.7461ZM138.09 13.9601C138.811 13.9601 139.367 14.1259 139.757 14.4574C140.147 14.7889 140.342 15.1594 140.342 15.5689C140.342 15.9394 140.264 16.2416 140.108 16.4756C139.952 16.6901 139.689 16.9631 139.318 17.2946L136.598 19.7516C135.974 19.7516 135.487 19.5956 135.136 19.2836C134.804 18.9716 134.638 18.6304 134.638 18.2599C134.638 18.0454 134.677 17.8601 134.755 17.7041C134.853 17.5481 134.999 17.3629 135.194 17.1484L138.09 13.9601Z" fill="black"/>
<path d="M149.803 34.9907C149.647 35.0297 149.413 35.0785 149.101 35.137C148.809 35.1955 148.487 35.2247 148.136 35.2247C147.434 35.2247 146.917 35.098 146.586 34.8445C146.274 34.591 146.118 34.1425 146.118 33.499V16.0076C146.274 15.9491 146.498 15.9004 146.79 15.8614C147.102 15.8029 147.434 15.7736 147.785 15.7736C148.487 15.7736 148.994 15.9004 149.306 16.1539C149.637 16.4074 149.803 16.8559 149.803 17.4994V34.9907Z" fill="black"/>
<path d="M156.169 31.6855C155.701 30.7105 155.145 29.3943 154.501 27.7368C153.858 26.0793 153.214 24.0708 152.571 21.7113C152.766 21.4773 153.039 21.2823 153.39 21.1263C153.741 20.9508 154.121 20.8631 154.531 20.8631C155.038 20.8631 155.447 20.9801 155.759 21.2141C156.091 21.4481 156.354 21.8673 156.549 22.4718C157.465 25.4163 158.509 28.3998 159.679 31.4223H159.796C160.049 30.7788 160.312 30.0475 160.585 29.2285C160.878 28.4095 161.151 27.5515 161.404 26.6545C161.677 25.7576 161.931 24.8508 162.165 23.9343C162.399 23.0178 162.604 22.1306 162.779 21.2726C163.013 21.1556 163.257 21.0581 163.51 20.9801C163.783 20.9021 164.066 20.8631 164.359 20.8631C164.866 20.8631 165.304 20.9801 165.675 21.2141C166.045 21.4481 166.231 21.8283 166.231 22.3548C166.231 22.9398 166.104 23.7686 165.85 24.8411C165.597 25.8941 165.256 27.0348 164.827 28.2633C164.417 29.4723 163.949 30.7008 163.423 31.9488C162.896 33.1772 162.37 34.2595 161.843 35.1955C160.829 36.9895 159.903 38.3252 159.064 39.2027C158.245 40.0997 157.436 40.5482 156.637 40.5482C156.013 40.5482 155.506 40.3629 155.116 39.9924C154.745 39.6414 154.511 39.1929 154.414 38.647C154.726 38.374 155.057 38.0522 155.408 37.6817C155.759 37.3307 156.11 36.9505 156.461 36.541C156.812 36.1315 157.144 35.7122 157.456 35.2832C157.768 34.8542 158.041 34.435 158.275 34.0255C158.099 33.967 157.924 33.8987 157.748 33.8207C157.592 33.7232 157.426 33.5867 157.251 33.4112C157.095 33.2357 156.919 33.0115 156.724 32.7385C156.549 32.4655 156.364 32.1145 156.169 31.6855Z" fill="black"/>
<defs>
<linearGradient id="paint0_linear" x1="20.267" y1="34.193" x2="26.2545" y2="44.9557" gradientUnits="userSpaceOnUse">
<stop stop-color="#139500"/>
<stop offset="1" stop-color="#139500" stop-opacity="0"/>
</linearGradient>
<linearGradient id="paint1_linear" x1="22.6314" y1="20.5504" x2="16.6439" y2="31.3131" gradientUnits="userSpaceOnUse">
<stop stop-color="#0070AF"/>
<stop offset="1" stop-color="#0070AF" stop-opacity="0"/>
</linearGradient>
<clipPath id="clip0">
<rect width="43.2099" height="56" fill="white"/>
</clipPath>
</defs>
</svg>
